<?xml version="1.0" encoding="UTF-8" standalone="no"?>
<svg viewBox="0 0 53 50" version="1.1" xmlns="http://www.w3.org/2000/svg" xmlns:xlink="http://www.w3.org/1999/xlink" xmlns:sketch="http://www.bohemiancoding.com/sketch/ns">
    <!-- Generator: Sketch 3.2.2 (9983) - http://www.bohemiancoding.com/sketch -->
    <title>13 - Back (Flat)</title>
    <desc>Created with Sketch.</desc>
    <defs></defs>
    <g id="Page-1" stroke="none" stroke-width="1" fill="none" fill-rule="evenodd" sketch:type="MSPage">
        <g id="13---Back-(Flat)" sketch:type="MSLayerGroup" fill="#26B99A">
            <path d="M22,15 L22,2.952 L1.892,22.904 L22,43.048 L22,31 C22,31 39.598,26.645 51.712,47 C51.712,47 54.733,31.464 41.203,20.206 C41.203,20.206 35.21,14.602 22,15" id="Fill-679" sketch:type="MSShapeGroup"></path>
            <path d="M52.193,49.764 L50.852,47.512 C40.639,30.347 26.451,31.308 23,31.831 L23,45.465 L0.476,22.901 L23,0.551 L23,13.981 C35.727,13.879 41.644,19.249 41.886,19.476 C55.667,30.94 52.725,47.029 52.693,47.19 L52.193,49.764 L52.193,49.764 Z M26.12,29.608 C31.881,29.608 42.464,31.547 50.974,43.984 C51.102,39.111 50.077,28.891 40.563,20.975 C40.465,20.887 34.581,15.602 22.03,16 L21,16.03 L21,5.354 L3.308,22.907 L21,40.631 L21,30.218 L21.76,30.029 C21.829,30.012 23.489,29.608 26.12,29.608 L26.12,29.608 Z" id="Fill-680" sketch:type="MSShapeGroup"></path>
        </g>
    </g>
</svg>