<?xml version="1.0" encoding="UTF-8" standalone="no"?>
<svg viewBox="0 0 54 50" version="1.1" xmlns="http://www.w3.org/2000/svg" xmlns:xlink="http://www.w3.org/1999/xlink" xmlns:sketch="http://www.bohemiancoding.com/sketch/ns">
    <!-- Generator: Sketch 3.2.2 (9983) - http://www.bohemiancoding.com/sketch -->
    <title>14 - Forward (Flat)</title>
    <desc>Created with Sketch.</desc>
    <defs></defs>
    <g id="Page-1" stroke="none" stroke-width="1" fill="none" fill-rule="evenodd" sketch:type="MSPage">
        <g id="14---Forward-(Flat)" sketch:type="MSLayerGroup" fill="#26B99A">
            <path d="M32.029,14.872 L32.029,2.825 L52,22.904 L32.029,42.984 L32.029,30.936 C32.029,30.936 14.294,26.645 2.18,47 C2.18,47 -0.841,31.464 12.689,20.206 C12.689,20.206 18.818,14.474 32.029,14.872" id="Fill-677" sketch:type="MSShapeGroup"></path>
            <path d="M1.698,49.764 L1.198,47.19 C1.167,47.029 -1.775,30.94 12.05,19.437 C12.252,19.246 18.166,13.852 30.724,13.852 C30.825,13.852 30.927,13.852 31.028,13.853 L31.028,0.4 L53.41,22.904 L31.028,45.408 L31.028,31.771 C30.366,31.674 29.304,31.558 27.957,31.558 C22.196,31.558 11.3,33.632 3.039,47.512 L1.698,49.764 L1.698,49.764 Z M30.724,15.853 C18.947,15.853 13.427,20.886 13.372,20.936 C3.826,28.881 2.793,39.108 2.919,43.983 C15.28,25.926 32.042,29.912 32.264,29.965 L33.028,30.149 L33.028,40.56 L50.59,22.904 L33.028,5.248 L33.028,15.902 L31.998,15.872 C31.565,15.858 31.142,15.853 30.724,15.853 L30.724,15.853 Z" id="Fill-678" sketch:type="MSShapeGroup"></path>
        </g>
    </g>
</svg>